<?xml version="1.0" standalone="no"?>
<!DOCTYPE svg PUBLIC "-//W3C//DTD SVG 20010904//EN"
 "http://www.w3.org/TR/2001/REC-SVG-20010904/DTD/svg10.dtd">
<svg version="1.0" xmlns="http://www.w3.org/2000/svg"
 width="1200.000000pt" height="627.000000pt" viewBox="0 0 1200.000000 627.000000"
 preserveAspectRatio="xMidYMid meet">

<g transform="translate(0.000000,627.000000) scale(0.100000,-0.100000)"
fill="#000000" stroke="none">
<path d="M0 3135 l0 -3135 1970 0 1970 0 0 196 0 195 38 15 c20 9 65 30 100
47 34 18 88 45 120 61 31 16 80 36 108 46 l51 18 21 -37 c11 -20 23 -48 26
-61 2 -14 7 -33 11 -43 4 -10 8 -40 9 -65 1 -38 4 -47 18 -46 10 1 16 -1 16
-5 -1 -3 5 -20 15 -37 12 -23 15 -46 11 -87 -5 -47 -3 -58 15 -76 12 -12 21
-27 21 -35 0 -9 12 -16 32 -18 24 -2 38 -12 53 -35 l20 -32 325 0 c278 0 322
2 305 13 -11 8 -45 36 -76 62 -47 41 -58 56 -64 92 -4 23 -11 45 -16 48 -5 3
-9 9 -9 15 0 14 30 11 46 -6 23 -23 80 -19 106 7 21 21 22 21 29 2 4 -10 8
-13 8 -6 1 20 18 14 46 -15 14 -15 25 -24 25 -20 0 4 10 2 23 -5 12 -7 24 -13
27 -13 48 -12 68 -18 83 -26 10 -5 33 -7 52 -3 43 8 75 -3 75 -25 0 -21 38
-64 50 -56 17 10 62 -27 57 -47 -5 -17 5 -18 170 -18 113 0 172 3 168 10 -3 5
-2 10 3 10 6 0 13 11 16 25 4 16 13 25 26 25 13 0 25 11 33 27 6 16 16 31 21
34 5 4 7 39 4 77 -5 68 -4 71 23 91 22 16 29 30 29 55 0 23 6 36 18 42 19 9
23 9 112 18 78 7 144 29 148 48 2 12 -14 15 -80 15 -114 1 -178 8 -211 21 -16
7 -38 12 -50 12 -11 0 -31 10 -44 22 -21 20 -23 20 -23 3 0 -17 -1 -17 -18 -2
-10 10 -22 17 -25 17 -4 0 -16 9 -27 20 -16 16 -25 18 -39 11 -12 -7 -22 -6
-29 1 -16 16 -15 28 2 28 45 0 -3 66 -56 77 -15 3 -30 14 -33 24 -4 11 -10 19
-15 19 -4 0 -6 9 -3 20 6 22 -45 80 -70 80 -25 0 -47 46 -47 99 0 27 -5 62
-10 77 -14 35 -7 41 26 19 17 -11 30 -13 36 -7 6 6 6 12 -1 16 -19 12 -12 26
14 26 22 0 24 3 19 33 -4 21 -3 28 4 19 5 -7 21 -19 35 -27 24 -12 28 -12 37
6 6 10 19 19 29 19 21 0 81 28 81 38 0 4 20 8 45 8 25 1 45 -2 45 -7 0 -14
192 -16 230 -2 8 4 22 7 30 7 18 1 28 66 10 66 -6 0 -9 4 -5 9 8 14 -44 51
-71 51 -13 0 -38 9 -56 20 -18 11 -45 20 -60 20 -15 0 -30 5 -34 11 -4 7 -24
9 -54 6 -38 -5 -52 -2 -68 14 -12 10 -26 19 -32 19 -15 0 -12 19 5 36 8 9 15
25 15 37 0 14 3 18 8 10 13 -21 47 -8 75 29 22 29 36 38 58 38 27 0 29 -3 30
-37 0 -35 1 -36 11 -15 14 29 57 41 73 19 7 -11 16 -13 26 -6 18 11 59 12 59
0 0 -17 43 -20 84 -6 49 17 82 19 91 5 8 -13 47 -2 57 15 10 17 62 7 87 -17
19 -17 22 -17 28 -3 4 12 8 13 13 5 6 -9 13 -9 30 0 14 7 38 10 63 6 29 -5 51
-1 81 13 59 28 108 39 131 30 27 -10 37 -10 54 0 12 8 12 13 -2 35 -20 30
-191 116 -232 116 -16 0 -51 6 -79 14 -131 36 -170 42 -196 29 -38 -19 -60
-16 -70 12 -5 14 -13 24 -17 23 -5 0 -21 4 -36 10 -35 15 -43 15 -67 0 -16
-10 -28 -9 -67 6 -140 54 -288 71 -383 43 -28 -8 -59 -13 -69 -10 -10 3 -22 0
-25 -5 -4 -6 -22 -8 -40 -5 -22 3 -54 -2 -92 -17 -33 -12 -66 -24 -74 -26 -9
-3 -21 -14 -28 -24 -9 -16 -6 -24 26 -54 20 -20 39 -36 43 -36 7 0 29 -79 35
-127 5 -37 -11 -83 -28 -83 -14 0 -38 -44 -38 -68 0 -10 -7 -13 -21 -9 -15 4
-23 0 -26 -13 -5 -18 -12 -19 -68 -11 -5 1 -1 9 10 18 20 15 20 15 -3 10 -15
-3 -27 1 -36 14 -7 11 -17 19 -22 18 -16 -4 -64 24 -64 38 0 7 -11 13 -24 13
-19 0 -29 10 -45 43 -12 24 -21 49 -21 55 0 7 -4 12 -10 12 -14 0 -12 26 3 42
8 8 12 33 11 63 -2 52 -14 63 -25 23 -5 -19 -7 -20 -13 -7 -4 10 1 32 13 52
16 28 17 38 8 44 -10 6 -12 27 -7 83 4 41 5 80 3 87 -6 16 -46 24 -55 10 -5
-8 -8 -7 -8 6 0 9 6 17 13 18 6 0 -4 7 -23 16 -19 8 -45 24 -58 36 -20 18 -24
19 -32 7 -5 -8 -10 -25 -10 -36 0 -12 -7 -27 -15 -34 -8 -7 -12 -17 -8 -23 4
-6 -6 -8 -29 -3 -47 9 -75 -19 -61 -61 11 -35 11 -39 -10 -87 -9 -21 -17 -46
-17 -55 0 -10 -6 -26 -14 -36 -12 -17 -15 -16 -33 26 -22 51 -55 148 -78 234
-8 33 -25 92 -36 130 -11 39 -25 95 -31 125 -5 30 -17 66 -25 79 -14 22 -14
25 1 37 12 8 16 23 14 45 -3 36 -19 46 -40 27 -18 -16 -55 -38 -66 -38 -28 0
-88 177 -96 282 -2 36 -11 77 -19 90 -8 12 -22 61 -32 106 -16 72 -17 87 -5
105 8 12 17 40 21 62 16 91 32 161 39 168 5 5 17 6 29 2 24 -7 27 -38 8 -71
-59 -101 -70 -132 -75 -200 -5 -77 8 -115 56 -167 20 -21 23 -30 14 -39 -20
-20 -14 -27 23 -26 21 1 35 6 35 14 0 21 41 43 69 38 l27 -6 -9 89 c-15 153
-8 243 19 243 8 0 14 5 14 10 0 6 -4 10 -10 10 -5 0 -10 7 -10 15 0 8 5 15 10
15 14 0 12 77 -2 86 -6 4 -14 2 -16 -5 -10 -29 -29 41 -35 124 -4 50 -10 106
-13 125 -4 24 0 41 10 55 l16 20 12 -20 c20 -35 88 -95 145 -127 60 -34 77
-63 68 -112 -5 -25 -4 -28 5 -13 8 12 24 17 53 17 46 0 73 -12 63 -28 -4 -7 3
-8 23 -2 35 10 41 5 41 -32 0 -27 3 -29 33 -26 26 2 33 -1 35 -18 2 -12 11
-29 21 -38 15 -13 24 -14 47 -6 15 6 40 8 54 4 14 -4 31 -6 38 -5 8 1 22 -5
32 -14 11 -10 26 -14 43 -10 29 8 44 -9 27 -30 -15 -18 -6 -19 22 -4 28 15 68
3 68 -21 0 -20 17 -36 28 -25 3 3 0 10 -8 15 -13 8 -13 10 1 10 9 0 19 7 23
15 7 18 28 20 25 3 -1 -7 2 -24 8 -38 20 -49 24 -70 14 -70 -14 0 -51 -41 -51
-57 0 -7 7 -13 15 -13 8 0 15 -4 15 -10 0 -5 -13 -10 -30 -10 -31 0 -37 -13
-20 -40 5 -9 5 -19 -1 -26 -6 -7 -6 -21 1 -38 5 -15 10 -36 10 -47 0 -23 16
-42 43 -52 14 -5 16 -11 7 -27 -7 -13 -7 -20 0 -20 5 0 10 -7 10 -15 0 -9 10
-15 26 -15 20 0 24 -4 20 -18 -4 -13 3 -23 27 -37 17 -10 45 -31 61 -47 22
-21 32 -25 38 -16 6 10 10 10 18 -2 13 -19 13 -30 0 -30 -17 0 -11 -18 9 -25
12 -4 21 -19 26 -43 4 -20 10 -41 13 -47 4 -5 7 -19 7 -30 0 -13 8 -21 22 -23
18 -3 22 0 16 15 -6 17 -5 17 14 0 11 -9 25 -17 32 -17 7 0 9 -5 5 -12 -4 -7
-3 -8 4 -4 6 4 9 13 6 20 -3 8 0 17 6 21 6 3 10 3 9 -2 -1 -4 -1 -20 0 -35 1
-23 6 -28 27 -28 14 0 23 4 20 9 -6 10 75 41 106 41 10 0 22 10 27 23 16 43
35 50 110 43 57 -6 70 -4 74 9 4 8 17 15 30 15 13 0 24 6 24 13 1 6 4 38 8 70
l8 57 -35 0 c-24 0 -55 14 -103 46 -117 76 -138 105 -137 190 0 41 -4 51 -15
47 -8 -3 -12 -11 -9 -18 8 -21 -32 -47 -54 -35 -10 5 -28 10 -40 10 -16 0 -20
4 -16 16 3 9 6 24 6 35 0 14 7 19 25 19 14 0 25 6 25 13 1 21 36 56 64 63 14
3 26 10 26 14 0 5 9 19 20 32 61 73 91 121 85 139 -4 12 1 29 14 45 25 32 26
47 6 77 -12 20 -18 56 -28 173 -1 11 -6 22 -12 26 -7 5 -6 14 2 27 10 15 9 22
-2 31 -15 13 -13 86 4 117 12 23 41 118 41 134 0 7 -10 23 -21 35 -43 46 -6
64 130 64 100 0 210 -17 238 -36 21 -13 22 -20 17 -67 -12 -104 39 -274 107
-352 9 -11 19 -29 21 -40 2 -13 12 -20 26 -21 12 -1 31 -9 41 -18 9 -9 33 -16
52 -16 28 1 31 2 17 11 -21 12 -24 55 -5 62 15 6 50 -17 40 -26 -3 -4 8 -10
25 -13 20 -4 29 -11 25 -20 -4 -10 6 -13 39 -13 40 0 85 -7 183 -32 107 -27
433 -38 555 -19 76 12 217 48 244 62 41 22 110 104 100 120 -3 4 -24 -7 -46
-27 -23 -19 -57 -40 -77 -46 -20 -6 -46 -18 -58 -25 -13 -8 -49 -18 -80 -23
-32 -5 -89 -19 -128 -31 -63 -19 -79 -20 -156 -11 -47 6 -121 11 -165 11 -54
0 -105 8 -162 25 -106 31 -260 104 -292 139 -23 25 -23 28 -7 37 9 6 17 15 17
21 0 6 -8 4 -19 -6 -17 -16 -20 -15 -50 13 -17 16 -31 33 -31 37 0 4 5 3 12
-4 9 -9 14 -7 24 6 8 10 13 12 14 5 0 -19 20 -16 20 3 0 12 -6 15 -26 10 -24
-6 -26 -5 -22 18 3 15 1 26 -3 26 -5 0 -9 20 -9 44 0 26 -5 46 -13 49 -7 3 -4
6 6 6 10 1 15 6 12 11 -4 6 -10 8 -14 5 -4 -2 -7 8 -6 23 1 15 3 37 3 50 1 13
9 22 18 22 11 0 14 -6 9 -20 -4 -14 -2 -20 7 -18 8 2 12 -5 11 -20 -2 -14 11
-36 37 -63 45 -46 46 -51 24 -73 -23 -24 -9 -71 29 -98 18 -12 38 -28 44 -34
13 -13 33 -18 113 -30 25 -3 50 -10 56 -15 16 -13 165 -26 195 -18 13 4 18 8
12 9 -7 1 -16 3 -20 4 -5 1 -23 6 -40 10 -30 7 -47 26 -23 26 5 0 13 15 18 33
6 22 15 33 30 35 12 2 22 9 22 16 0 8 7 19 15 26 12 10 15 10 15 -2 0 -8 -5
-19 -12 -26 -9 -9 -9 -12 0 -12 7 0 12 5 12 10 0 18 23 10 52 -17 30 -28 46
-27 30 4 -11 20 1 63 18 63 5 0 10 7 10 15 0 11 -11 15 -37 15 -34 0 -35 1
-20 18 41 45 59 139 37 196 -12 33 -9 33 42 -4 23 -17 44 -28 47 -24 10 10
-62 64 -140 104 -72 37 -83 39 -190 45 -63 3 -143 9 -179 13 l-65 7 135 34
c116 29 151 34 250 34 226 -1 449 -36 557 -87 41 -20 81 -36 89 -36 28 0 84
-62 95 -106 6 -24 15 -42 19 -39 11 7 35 -87 31 -122 -2 -21 -21 -15 -32 10
-7 17 -8 11 -4 -26 3 -36 -2 -67 -20 -119 -16 -47 -21 -74 -15 -78 6 -4 8 -14
5 -23 -5 -11 3 -21 25 -32 36 -19 40 -17 44 19 1 14 6 29 9 32 4 4 29 -16 56
-43 62 -62 66 -84 58 -327 -5 -170 -9 -193 -52 -374 -48 -205 -86 -298 -153
-379 -34 -43 -48 -49 -147 -70 -39 -8 -42 -11 -92 -113 -29 -58 -69 -148 -88
-200 -55 -146 -96 -244 -109 -260 -7 -8 -23 -49 -36 -90 -12 -41 -33 -97 -45
-125 -23 -49 -57 -140 -76 -200 -17 -57 -11 -156 15 -210 22 -48 90 -115 146
-145 116 -61 246 -197 277 -291 18 -53 4 -122 -41 -204 -59 -107 -124 -219
-147 -255 -12 -19 -31 -50 -42 -67 l-19 -33 284 0 284 0 27 118 c35 153 36
235 1 304 l-26 51 27 -7 c14 -4 47 -22 73 -40 26 -19 88 -55 137 -82 50 -26
133 -73 185 -104 l95 -57 3 -91 3 -92 1579 0 1580 0 0 3135 0 3135 -6000 0
-6000 0 0 -3135z m6886 2316 c-3 -5 8 -14 25 -21 25 -11 29 -17 25 -37 -5 -16
-2 -23 9 -23 8 0 15 -6 15 -13 0 -7 11 -28 25 -47 14 -19 28 -55 31 -82 5 -35
10 -46 17 -39 16 16 27 13 21 -4 -8 -19 1 -19 30 0 14 9 54 17 97 20 41 2 108
13 149 24 41 12 81 22 88 23 6 1 12 5 12 9 0 3 8 10 18 13 9 4 33 16 52 26 30
17 37 18 45 6 9 -12 15 -12 35 -1 21 12 28 11 43 -2 12 -12 17 -13 17 -3 0 9
9 11 31 6 19 -4 38 -1 46 6 11 9 17 9 24 -3 16 -25 5 -44 -26 -44 -44 0 -42
-19 2 -25 30 -4 37 -9 35 -24 -5 -28 18 -75 39 -81 10 -4 28 -4 38 0 14 4 21
-1 28 -20 l8 -26 22 21 c12 11 26 20 31 20 5 0 15 7 22 15 11 14 16 12 41 -12
16 -16 29 -36 29 -45 0 -10 4 -18 9 -18 5 0 14 -20 20 -44 6 -24 17 -49 26
-56 8 -7 15 -19 15 -27 0 -8 12 -48 26 -89 l27 -74 -21 -19 c-17 -14 -19 -20
-9 -30 9 -9 9 -14 -2 -20 -11 -7 -10 -14 3 -39 8 -17 20 -32 26 -34 14 -4 30
-100 19 -114 -12 -15 -12 -210 0 -269 6 -27 17 -82 25 -121 7 -39 17 -77 21
-83 4 -7 8 -57 10 -112 3 -98 3 -100 -18 -93 -25 7 -91 58 -128 99 -13 14 -34
30 -46 35 -15 6 -20 15 -16 30 3 12 11 19 18 16 22 -8 26 6 8 26 -9 11 -18 25
-19 32 -2 16 -85 125 -113 149 -12 9 -45 29 -74 43 -28 15 -60 31 -70 36 -10
5 -33 6 -51 3 -25 -5 -35 -3 -40 10 -3 9 -10 13 -16 10 -6 -4 -8 -10 -5 -15 3
-5 -18 -7 -47 -6 -29 1 -80 -3 -113 -10 -33 -7 -87 -18 -120 -24 -33 -7 -68
-16 -77 -21 -10 -5 -33 -9 -52 -9 -18 0 -53 -7 -76 -15 -23 -8 -55 -15 -71
-15 -16 0 -43 -6 -61 -14 -55 -24 -68 -29 -116 -40 -19 -4 -47 -22 -63 -38
-34 -36 -75 -59 -92 -52 -9 3 -12 -7 -9 -36 2 -22 8 -40 13 -40 5 0 6 -20 3
-44 -6 -40 -3 -47 21 -70 27 -25 26 -52 -1 -42 -8 3 -25 1 -38 -5 -18 -9 -48
-7 -122 6 -55 9 -166 18 -248 20 -109 3 -151 7 -157 17 -14 21 -10 55 6 61 10
5 14 20 12 57 -1 27 -5 50 -8 50 -3 0 -22 15 -41 33 -52 46 -66 57 -77 57 -5
0 -12 8 -16 18 -3 11 -17 24 -30 30 -14 6 -25 16 -25 21 0 5 -29 24 -65 42
-36 17 -65 35 -65 39 0 5 -26 16 -57 25 -77 22 -155 56 -169 72 -6 7 -25 16
-43 19 -40 8 -48 21 -25 40 18 14 18 14 -3 5 -12 -6 -41 -11 -64 -11 -41 0
-42 0 -24 19 17 20 16 20 -20 10 -27 -8 -45 -8 -63 0 -13 7 -32 9 -41 6 -12
-4 -16 2 -17 26 -1 17 -7 35 -15 40 -11 7 -11 9 3 9 12 0 19 12 23 48 4 26 13
57 21 69 8 12 14 29 14 38 0 17 -16 20 -26 4 -4 -8 -9 -8 -17 0 -7 7 -4 16 11
29 15 13 22 31 22 54 0 19 5 39 12 46 7 7 8 12 3 12 -5 0 0 6 10 14 17 12 18
17 7 41 -10 22 -15 25 -27 15 -12 -10 -16 -9 -21 4 -3 9 -1 23 6 31 14 16 5
35 -16 35 -21 0 -17 21 6 27 16 4 18 8 9 19 -9 11 -6 19 15 39 15 14 26 35 26
50 0 14 5 25 10 25 6 0 10 6 9 13 -4 31 1 38 22 32 16 -5 20 -3 17 6 -9 25 42
109 65 109 6 0 2 -9 -8 -20 -17 -19 -17 -20 1 -20 10 0 28 -7 38 -15 28 -21
34 -19 38 12 2 16 10 27 21 29 11 1 21 5 24 8 4 3 12 -2 19 -12 12 -16 14 -16
28 3 14 19 15 19 27 -14 10 -28 13 -31 21 -17 5 9 13 14 18 11 5 -3 11 9 15
26 5 20 16 34 33 40 34 13 56 4 47 -19 -4 -9 -8 -29 -10 -44 -1 -16 -9 -36
-18 -46 -21 -23 -11 -35 15 -21 14 7 23 7 33 -1 8 -6 23 -9 35 -5 12 4 26 0
36 -10 10 -10 20 -12 28 -7 6 5 23 12 38 16 24 5 28 3 34 -21 9 -42 12 -50 13
-30 1 9 6 17 12 17 6 0 8 -6 5 -12 -2 -7 -10 -30 -17 -51 -16 -48 -6 -59 55
-59 33 -1 46 -5 46 -16 0 -10 10 -7 34 12 19 14 38 26 41 26 4 0 20 14 35 30
29 31 76 40 97 19 8 -8 14 0 23 28 13 40 44 72 71 73 9 0 28 9 43 21 15 11 32
22 39 23 23 3 37 17 37 36 0 13 5 17 14 14 9 -3 27 12 48 40 18 25 39 45 46
46 8 0 27 9 42 20 37 26 138 51 126 31z m-399 -187 c-3 -3 -12 -4 -19 -1 -8 3
-5 6 6 6 11 1 17 -2 13 -5z m-1237 -329 c0 -8 -4 -15 -10 -15 -5 0 -10 7 -10
15 0 8 5 15 10 15 6 0 10 -7 10 -15z m160 -85 c0 -5 -2 -10 -4 -10 -3 0 -8 5
-11 10 -3 6 -1 10 4 10 6 0 11 -4 11 -10z m-30 -70 c0 -5 -2 -10 -4 -10 -3 0
-8 5 -11 10 -3 6 -1 10 4 10 6 0 11 -4 11 -10z m-471 -464 c5 -32 3 -57 -7
-111 -6 -29 -6 -51 -1 -53 5 -2 9 -8 9 -14 0 -6 -7 -8 -15 -4 -8 3 -15 0 -15
-7 0 -30 -27 -66 -61 -81 -20 -9 -39 -25 -42 -36 -3 -13 -10 -18 -21 -14 -25
9 -29 45 -12 95 9 24 16 51 16 59 0 8 5 31 10 50 9 31 20 49 70 108 6 6 20 12
31 12 11 0 18 4 15 8 -3 5 1 9 7 9 7 0 14 -10 16 -21z m326 -186 c3 -5 -3 -10
-14 -10 -12 0 -21 5 -21 10 0 6 6 10 14 10 8 0 18 -4 21 -10z m2475 -27 c0 -6
8 -9 19 -6 10 3 22 0 25 -6 4 -5 14 -7 24 -4 15 6 15 5 3 -10 -12 -15 -11 -17
2 -17 9 0 19 5 22 10 3 6 15 10 26 10 11 0 17 -5 14 -10 -4 -6 7 -13 24 -16
16 -4 32 -13 36 -21 4 -13 -1 -14 -27 -9 -18 4 -102 11 -186 16 -83 5 -160 13
-169 18 -14 9 -14 11 6 28 26 23 59 31 128 30 33 -1 53 -5 53 -13z m-2431 -23
c-25 -13 -94 -20 -109 -10 -13 8 -13 10 0 14 20 7 103 12 114 7 5 -2 2 -7 -5
-11z m256 5 c83 -16 94 -19 211 -55 55 -17 74 -28 83 -46 15 -33 14 -34 -10
-34 -11 0 -18 3 -16 8 3 4 -20 8 -51 8 -32 1 -93 5 -137 9 -66 6 -97 3 -172
-15 -122 -29 -128 -28 -128 38 1 61 17 82 72 92 57 11 62 11 148 -5z m-412
-42 c-13 -2 -33 -2 -45 0 -13 2 -3 4 22 4 25 0 35 -2 23 -4z m2314 -10 c-20
-2 -52 -2 -70 0 -17 2 0 4 38 4 39 0 53 -2 32 -4z m-2381 -30 c8 -11 13 -13
14 -5 0 17 30 15 30 -2 0 -38 -15 -78 -38 -102 l-26 -25 26 6 c17 5 29 2 35
-7 4 -8 15 -17 24 -21 15 -5 15 -10 1 -61 -13 -48 -19 -56 -39 -56 -20 0 -23
-5 -23 -40 0 -39 -1 -40 -36 -40 -34 0 -36 2 -30 26 5 17 1 33 -13 49 l-19 25
-6 -23 c-9 -36 -7 -72 6 -85 8 -8 8 -12 1 -12 -6 0 -11 -21 -11 -46 -2 -62 38
-118 77 -111 24 5 26 3 26 -29 0 -34 3 -36 55 -56 57 -21 108 -34 173 -45 l39
-6 -4 34 -3 34 85 0 c74 0 90 -3 118 -24 26 -18 46 -24 86 -23 29 0 59 -4 67
-10 10 -7 3 -8 -23 -4 -31 4 -40 1 -48 -15 -9 -16 -22 -19 -82 -19 -112 0
-299 19 -344 36 -23 8 -68 19 -100 24 -84 13 -216 83 -281 148 -50 49 -54 51
-61 31 -12 -32 -40 77 -45 176 -5 93 0 112 33 128 14 7 30 27 36 45 14 45 44
72 86 78 34 6 38 4 61 -32 13 -22 27 -51 30 -65 7 -28 42 -45 54 -26 3 5 6 38
6 71 -1 59 14 96 40 96 5 0 16 -8 23 -17z m2949 -39 c22 -9 34 -19 27 -21 -7
-3 -25 0 -40 6 -15 6 -58 18 -97 26 l-70 15 70 -4 c39 -3 88 -12 110 -22z
m-2755 1 c0 -9 -13 -21 -29 -28 -15 -7 -29 -16 -29 -20 -1 -11 -39 -57 -46
-57 -3 0 -6 13 -6 29 0 21 9 35 33 53 51 39 77 47 77 23z m675 -48 c18 -18 51
-45 74 -60 23 -15 41 -31 41 -36 0 -5 7 -17 16 -26 13 -12 13 -19 4 -30 -6 -8
-9 -18 -7 -22 3 -5 -3 -10 -14 -10 -10 -1 -19 2 -19 7 0 5 -32 43 -72 85 -43
45 -72 85 -74 100 -4 34 12 31 51 -8z m922 17 c-3 -3 -12 -4 -19 -1 -8 3 -5 6
6 6 11 1 17 -2 13 -5z m48 -14 c-3 -5 -12 -10 -18 -10 -7 0 -6 4 3 10 19 12
23 12 15 0z m-1370 -90 c3 -5 -1 -10 -10 -10 -9 0 -13 5 -10 10 3 6 8 10 10
10 2 0 7 -4 10 -10z m137 -32 c-15 -15 -26 -4 -18 18 5 13 9 15 18 6 9 -9 9
-15 0 -24z m1101 26 c11 -11 -3 -24 -18 -18 -8 4 -12 10 -9 15 6 11 18 12 27
3z m-957 -90 c-3 -9 -6 -24 -6 -35 0 -12 -7 -19 -20 -19 -24 0 -25 4 -3 41 18
31 39 40 29 13z m1374 -4 c0 -30 27 -91 52 -117 30 -32 9 -29 -69 7 -77 37
-95 67 -61 105 28 32 78 35 78 5z m238 2 c2 -7 -3 -12 -12 -12 -9 0 -16 7 -16
16 0 17 22 14 28 -4z m-2018 -27 c29 -31 22 -40 -16 -23 -32 14 -45 28 -38 40
9 15 30 8 54 -17z m620 -30 c9 -11 9 -18 -3 -35 -12 -18 -16 -18 -26 -6 -13
15 -6 56 8 56 5 0 14 -7 21 -15z m-684 -30 c-3 -8 2 -18 11 -23 10 -6 13 -16
9 -30 -6 -17 -14 -21 -34 -18 -71 11 -84 24 -58 59 14 18 32 24 21 7 -3 -5 3
-10 14 -10 14 0 19 5 15 15 -4 10 0 15 11 15 11 0 15 -5 11 -15z m1859 -75 c3
-5 -1 -10 -9 -10 -9 0 -16 5 -16 10 0 6 4 10 9 10 6 0 13 -4 16 -10z m-140
-20 c4 -6 -7 -10 -27 -10 -25 0 -29 3 -18 10 19 13 37 13 45 0z m245 -10 c0
-5 -5 -10 -11 -10 -5 0 -7 5 -4 10 3 6 8 10 11 10 2 0 4 -4 4 -10z m-2741 -57
c-34 -25 -67 -43 -79 -43 -17 0 -11 20 8 27 9 4 23 13 30 20 7 7 25 13 39 13
l26 0 -24 -17z m711 -3 c8 -5 12 -11 10 -14 -8 -7 -60 6 -60 15 0 12 31 11 50
-1z m2083 -16 c-4 -10 -9 -12 -15 -6 -12 12 -1 35 12 27 5 -3 6 -13 3 -21z
m-523 -5 c0 -6 -4 -7 -10 -4 -5 3 -10 11 -10 16 0 6 5 7 10 4 6 -3 10 -11 10
-16z m-2390 -76 c-11 -21 -20 -46 -20 -55 0 -10 -5 -18 -10 -18 -19 0 10 86
34 102 17 12 17 10 -4 -29z m764 11 c23 -9 20 -23 -4 -17 -11 3 -20 9 -20 14
0 11 3 11 24 3z m491 -84 c-3 -5 -17 -10 -30 -10 -13 0 -27 5 -30 10 -4 6 8
10 30 10 22 0 34 -4 30 -10z m-1225 -290 c0 -13 -1 -13 -10 0 -5 8 -10 22 -10
30 0 13 1 13 10 0 5 -8 10 -22 10 -30z m1500 -284 c0 -3 -4 -8 -10 -11 -5 -3
-10 -1 -10 4 0 6 5 11 10 11 6 0 10 -2 10 -4z m-873 -1052 c-3 -3 -12 -4 -19
-1 -8 3 -5 6 6 6 11 1 17 -2 13 -5z m63 -568 c0 -25 -4 -56 -9 -69 -5 -13 -12
-52 -15 -87 -4 -48 -10 -66 -26 -77 -12 -8 -25 -26 -30 -39 -5 -13 -18 -24
-28 -24 -10 0 -23 -5 -30 -12 -6 -6 -22 -13 -34 -15 -13 -2 -32 -13 -43 -26
-15 -16 -32 -22 -62 -23 -39 -1 -41 1 -45 33 -6 52 15 78 107 133 73 43 162
130 170 165 10 47 27 85 36 85 5 0 9 -20 9 -44z m3088 -575 c35 -18 83 -61 68
-61 -11 0 -79 38 -106 59 -32 26 -11 27 38 2z"/>
<path d="M5650 5261 c0 -6 4 -13 10 -16 6 -3 7 1 4 9 -7 18 -14 21 -14 7z"/>
<path d="M6446 5163 c-6 -14 -5 -15 5 -6 7 7 10 15 7 18 -3 3 -9 -2 -12 -12z"/>
<path d="M5768 4353 c7 -3 16 -2 19 1 4 3 -2 6 -13 5 -11 0 -14 -3 -6 -6z"/>
<path d="M4900 3879 c0 -11 5 -17 10 -14 6 3 10 13 10 21 0 8 -4 14 -10 14 -5
0 -10 -9 -10 -21z"/>
<path d="M5010 3820 c0 -33 24 -42 32 -12 7 24 -1 42 -18 42 -9 0 -14 -11 -14
-30z"/>
<path d="M4966 3821 c-4 -7 -5 -15 -2 -18 9 -9 19 4 14 18 -4 11 -6 11 -12 0z"/>
<path d="M4764 3755 c-9 -23 11 -41 82 -71 55 -23 67 -25 75 -13 17 27 9 39
-51 69 -66 33 -98 38 -106 15z m96 -45 c0 -5 -2 -10 -4 -10 -3 0 -8 5 -11 10
-3 6 -1 10 4 10 6 0 11 -4 11 -10z"/>
<path d="M7920 3900 c0 -5 6 -10 14 -10 8 0 17 -10 19 -22 l4 -23 2 22 c0 13
-7 27 -19 33 -14 7 -20 7 -20 0z"/>
<path d="M7940 3720 c0 -22 2 -40 4 -40 2 0 6 18 8 40 2 22 0 40 -4 40 -5 0
-8 -18 -8 -40z"/>
<path d="M8036 3611 c-16 -3 -31 -12 -34 -18 -4 -15 103 -19 112 -4 4 6 -39
34 -47 30 -1 -1 -15 -4 -31 -8z"/>
<path d="M7550 3510 c0 -5 5 -10 11 -10 5 0 7 5 4 10 -3 6 -8 10 -11 10 -2 0
-4 -4 -4 -10z"/>
<path d="M7942 3480 c0 -14 2 -19 5 -12 2 6 2 18 0 25 -3 6 -5 1 -5 -13z"/>
<path d="M8228 3287 c-25 -45 -37 -97 -23 -105 25 -15 33 -51 40 -187 3 -77 9
-148 12 -158 5 -18 5 -18 25 0 48 43 53 68 53 250 0 101 -4 176 -10 182 -5 5
-27 17 -47 25 -36 15 -38 15 -50 -7z"/>
<path d="M4765 3000 c3 -5 8 -10 11 -10 2 0 4 5 4 10 0 6 -5 10 -11 10 -5 0
-7 -4 -4 -10z"/>
<path d="M5595 2950 c4 -6 11 -8 16 -5 14 9 11 15 -7 15 -8 0 -12 -5 -9 -10z"/>
<path d="M6132 2848 c-16 -16 -15 -33 2 -47 11 -9 15 -7 18 6 3 10 2 26 -1 36
-5 14 -9 15 -19 5z"/>
<path d="M5474 2769 c-6 -10 -7 -10 29 -13 15 -1 27 1 27 5 0 10 -50 17 -56 8z"/>
<path d="M8097 2682 c-9 -17 -30 -123 -25 -127 10 -10 77 25 83 44 10 34 -43
111 -58 83z"/>
<path d="M4724 2566 c-6 -27 12 -70 27 -61 17 11 8 85 -12 85 -5 0 -11 -11
-15 -24z"/>
<path d="M6638 2550 c-26 -16 -52 -38 -57 -49 -9 -16 -6 -21 19 -30 17 -5 38
-18 47 -27 15 -15 15 -19 2 -43 -9 -16 -25 -27 -42 -29 -16 -2 -27 -9 -27 -18
0 -23 41 -33 95 -23 63 12 145 86 145 132 0 41 -27 82 -67 101 -46 22 -61 20
-115 -14z"/>
<path d="M5140 2546 c0 -2 7 -7 16 -10 8 -3 12 -2 9 4 -6 10 -25 14 -25 6z"/>
<path d="M5045 2491 c-3 -5 -1 -12 5 -16 5 -3 10 1 10 9 0 18 -6 21 -15 7z"/>
<path d="M5830 2100 c0 -5 5 -10 10 -10 6 0 10 5 10 10 0 6 -4 10 -10 10 -5 0
-10 -4 -10 -10z"/>
<path d="M4995 2060 c-3 -5 -1 -10 4 -10 6 0 11 5 11 10 0 6 -2 10 -4 10 -3 0
-8 -4 -11 -10z"/>
<path d="M4961 1954 c0 -11 3 -14 6 -6 3 7 2 16 -1 19 -3 4 -6 -2 -5 -13z"/>
<path d="M6097 1483 c-16 -18 -16 -22 -2 -33 12 -10 16 -9 21 3 3 9 4 23 2 33
-3 14 -5 14 -21 -3z"/>
<path d="M6383 1203 c-18 -7 -16 -33 1 -33 9 0 14 9 13 20 -1 11 -1 20 -2 19
0 0 -6 -3 -12 -6z"/>
<path d="M6620 500 c0 -5 5 -10 10 -10 6 0 10 5 10 10 0 6 -4 10 -10 10 -5 0
-10 -4 -10 -10z"/>
</g>
</svg>
